<?xml version="1.0" standalone="no"?>
<!DOCTYPE svg PUBLIC "-//W3C//DTD SVG 20010904//EN"
 "http://www.w3.org/TR/2001/REC-SVG-20010904/DTD/svg10.dtd">
<svg version="1.0" xmlns="http://www.w3.org/2000/svg"
 width="500.000000pt" height="500.000000pt" viewBox="0 0 500.000000 500.000000"
 preserveAspectRatio="xMidYMid meet">

<g transform="translate(0.000000,500.000000) scale(0.100000,-0.100000)"
fill="#000000" stroke="none">
<path d="M1760 3477 c-105 -24 -192 -84 -231 -159 -60 -116 -13 -264 105 -333
24 -14 106 -41 182 -61 76 -20 147 -43 157 -51 9 -9 17 -29 17 -45 0 -24 -7
-32 -42 -48 -53 -24 -144 -26 -196 -5 -20 9 -55 34 -77 55 -46 46 -48 45 -149
-29 l-56 -42 15 -29 c46 -89 252 -160 425 -147 209 17 335 125 335 287 0 75
-28 141 -77 185 -50 46 -75 56 -236 99 -147 38 -168 48 -177 76 -8 26 10 49
52 67 64 26 152 10 207 -38 19 -16 37 -29 41 -29 10 0 138 91 147 104 19 28
-79 103 -172 130 -75 22 -203 28 -270 13z"/>
<path d="M2355 3468 c-3 -7 -4 -206 -3 -443 l3 -430 105 -3 c58 -2 115 0 128
3 l22 5 -2 438 -3 437 -123 3 c-92 2 -124 -1 -127 -10z"/>
<path d="M2731 3471 c-20 -13 -15 -21 119 -231 66 -103 120 -194 120 -203 0
-9 -46 -87 -103 -174 -150 -229 -163 -253 -146 -264 19 -12 196 -11 219 1 10
5 51 66 90 135 39 69 75 125 80 125 4 0 42 -58 84 -130 54 -91 83 -131 99
-135 12 -3 74 -4 137 -3 101 3 115 5 118 21 2 10 -54 106 -132 225 -74 114
-138 215 -141 224 -5 12 31 76 115 204 67 103 119 192 116 200 -4 11 -28 14
-98 14 -51 0 -103 -3 -116 -6 -16 -5 -41 -38 -84 -115 -33 -60 -66 -109 -72
-109 -6 0 -38 48 -70 106 -40 72 -66 108 -83 115 -31 11 -233 12 -252 0z"/>
<path d="M3491 2490 c-68 -14 -162 -63 -203 -105 -59 -60 -83 -118 -83 -200 1
-84 31 -151 95 -209 53 -48 108 -71 245 -103 162 -38 190 -57 144 -99 -25 -23
-140 -32 -193 -14 -20 6 -52 29 -73 51 -20 21 -45 42 -56 45 -12 4 -45 -12
-98 -47 -117 -76 -122 -96 -43 -169 152 -140 485 -161 663 -42 145 98 167 318
44 444 -45 46 -98 69 -265 113 -73 20 -139 42 -147 50 -32 32 16 65 94 65 55
0 89 -13 132 -50 19 -17 41 -30 50 -30 9 0 51 25 94 57 88 63 96 81 55 130
-28 34 -105 77 -173 99 -59 18 -222 26 -282 14z m295 -60 c57 -19 144 -80 144
-100 0 -4 -30 -29 -66 -55 l-65 -47 -22 20 c-47 43 -89 57 -169 57 -95 -1
-131 -21 -136 -78 -3 -32 1 -39 29 -56 18 -11 68 -29 113 -41 181 -47 229 -64
271 -96 120 -92 121 -287 2 -389 -74 -64 -132 -80 -292 -79 -151 1 -206 13
-301 69 -38 22 -92 81 -83 89 2 2 35 24 73 49 l69 46 48 -43 c53 -48 102 -66
179 -66 107 0 178 43 165 100 -11 47 -46 66 -186 99 -156 38 -219 69 -265 130
-97 127 -53 299 96 376 96 50 276 57 396 15z"/>
<path d="M1035 2477 c-19 -15 -20 -29 -23 -454 -1 -340 1 -444 11 -463 l13
-25 239 -3 c309 -3 401 10 491 71 66 44 98 107 98 196 0 100 -33 152 -138 216
-14 9 -10 15 30 45 62 46 86 93 85 169 0 92 -45 163 -131 207 -74 38 -139 46
-400 51 -217 4 -258 2 -275 -10z m608 -56 c90 -29 140 -78 156 -151 20 -92
-11 -148 -116 -214 -24 -14 -43 -31 -43 -36 0 -6 20 -19 44 -30 62 -26 124
-85 136 -128 32 -117 -24 -220 -143 -263 -57 -21 -83 -23 -344 -27 l-283 -4 0
434 c0 239 3 438 8 442 4 4 122 6 262 4 230 -4 262 -7 323 -27z"/>
<path d="M1313 2293 c-9 -3 -13 -33 -13 -99 0 -91 1 -94 25 -100 14 -3 61 -5
104 -3 67 4 83 8 105 28 52 49 40 133 -24 166 -28 14 -168 20 -197 8z m191
-54 c31 -25 34 -61 6 -89 -17 -17 -33 -20 -100 -20 l-80 0 0 65 0 65 74 0 c59
0 78 -4 100 -21z"/>
<path d="M1311 1926 c-8 -9 -11 -47 -9 -107 l3 -94 90 -3 c130 -5 180 28 178
114 -2 69 -61 104 -176 104 -52 0 -78 -4 -86 -14z m200 -44 c15 -13 22 -30 22
-52 0 -53 -30 -70 -124 -70 l-79 0 0 70 0 70 79 0 c62 0 84 -4 102 -18z"/>
<path d="M1948 2479 c-17 -9 -18 -42 -18 -469 0 -444 1 -460 19 -470 31 -16
253 -13 277 4 18 14 19 32 22 464 2 402 1 452 -13 466 -13 13 -40 16 -143 16
-70 0 -135 -5 -144 -11z m262 -469 l0 -440 -120 0 -120 0 0 440 0 440 120 0
120 0 0 -440z"/>
<path d="M2326 2474 c-20 -19 -23 -193 -4 -212 8 -8 52 -12 130 -12 l118 0 0
-348 c0 -257 3 -351 12 -360 8 -8 55 -12 144 -12 107 0 136 3 148 16 14 13 16
60 16 360 l0 344 120 0 c143 0 140 -2 140 124 0 76 -2 86 -22 100 -19 14 -75
16 -405 16 -334 0 -384 -2 -397 -16z m784 -104 l0 -80 -114 0 c-63 0 -121 -3
-130 -6 -14 -5 -16 -47 -16 -360 l0 -354 -120 0 -120 0 0 341 c0 215 -4 347
-10 360 -10 17 -22 19 -130 19 l-120 0 0 80 0 80 380 0 380 0 0 -80z"/>
</g>
</svg>
